<svg width="580" height="41" viewBox="0 0 580 41" fill="none" xmlns="http://www.w3.org/2000/svg">
<g clip-path="url(#clip0_121_53806)">
<path d="M63.0052 27.4497H60.213V12.1011H65.9476C66.64 12.0906 67.3262 12.2332 67.9581 12.5187C68.539 12.7831 69.0619 13.1601 69.4968 13.6281C69.9218 14.084 70.2581 14.6155 70.4885 15.1956C70.8913 16.1897 70.9529 17.2904 70.664 18.3237C70.5458 18.7502 70.3684 19.1576 70.1362 19.5339C69.6409 20.3293 68.9357 20.9708 68.0992 21.3864C68.8457 22.409 69.588 23.4217 70.3265 24.4242C71.0644 25.4268 71.811 26.4354 72.5655 27.4497H70.3721C70.1922 27.4455 70.0142 27.4126 69.8436 27.3525C69.6237 27.2796 69.4136 27.1772 69.2202 27.0481C68.9806 26.8923 68.7552 26.7146 68.5482 26.5173C68.2957 26.2691 68.069 25.9957 67.8719 25.7017L65.0902 21.9314H63.0052V27.4497ZM66.0339 19.1057C66.3006 19.1042 66.5636 19.0438 66.8051 18.9288C67.0465 18.8187 67.2646 18.6618 67.4457 18.467C67.6286 18.2724 67.7752 18.0458 67.8774 17.7983C67.9828 17.5499 68.037 17.2827 68.037 17.0126C68.0376 16.738 67.9834 16.4661 67.8774 16.2129C67.774 15.966 67.628 15.7395 67.4457 15.5442C67.2639 15.3504 67.0459 15.1941 66.8051 15.0842C66.5642 14.9684 66.3006 14.9079 66.0339 14.9072H63.0052V19.0952L66.0339 19.1057Z" fill="white"/>
<path d="M80.0242 12.1006H82.5558L89.2421 27.4497H87.5008C87.1164 27.4531 86.7382 27.3456 86.4124 27.1401C86.0865 26.9348 85.8297 26.6358 85.6751 26.2819L84.7665 24.2047H77.8136L76.9179 26.2819C76.8446 26.4548 76.7424 26.6144 76.6174 26.7543C76.4892 26.8966 76.342 27.0204 76.1806 27.1223C76.0162 27.2274 75.8375 27.3084 75.6509 27.363C75.4655 27.4205 75.2727 27.4497 75.0793 27.4497H73.3386L80.0242 12.1006ZM79.0522 21.3862H83.5284L81.5315 16.7381C81.4459 16.5498 81.383 16.3519 81.3436 16.1489C81.3122 15.9719 81.2913 15.8339 81.2839 15.742C81.2709 15.8805 81.2494 16.0181 81.221 16.1542C81.1804 16.3541 81.1219 16.5498 81.0443 16.7381L79.0522 21.3862Z" fill="white"/>
<path d="M97.2804 27.4497H94.4716V20.9475C94.4753 20.7347 94.4241 20.5245 94.3231 20.3373C94.2024 20.1266 94.0712 19.9228 93.9283 19.7269L88.3157 12.1012H90.4598C90.8904 12.0919 91.3166 12.1873 91.7028 12.379C92.0644 12.5655 92.3712 12.8421 92.5941 13.1822L95.6136 17.2852C95.7016 17.4041 95.7676 17.5385 95.8076 17.6814C95.8427 17.816 95.8618 17.9027 95.8686 17.9381C95.8821 17.8528 95.9024 17.7688 95.9289 17.6868C95.9714 17.5406 96.0417 17.4042 96.1365 17.2852L99.1449 13.1929C99.3629 12.8446 99.6715 12.5617 100.037 12.3736C100.423 12.1854 100.849 12.0921 101.278 12.1012H103.449L97.8212 19.7374C97.7368 19.8525 97.6604 19.9568 97.5994 20.0542C97.5354 20.1453 97.4768 20.2398 97.4226 20.3373C97.374 20.429 97.3376 20.5265 97.3124 20.6274C97.2859 20.7321 97.2736 20.8396 97.2748 20.9475L97.2804 27.4497Z" fill="white"/>
<path d="M118.889 20.0819V25.9787C118.543 26.2985 118.153 26.5671 117.731 26.7765C117.299 26.9902 116.846 27.1588 116.379 27.2795C115.888 27.4048 115.389 27.4903 114.884 27.5355C114.371 27.5814 113.848 27.6044 113.319 27.6044C112.267 27.6118 111.224 27.402 110.258 26.9884C109.325 26.5927 108.476 26.0235 107.757 25.3116C107.041 24.5991 106.469 23.756 106.073 22.8283C105.665 21.8623 105.455 20.8252 105.455 19.7775C105.455 18.7298 105.665 17.6927 106.073 16.7267C106.47 15.7959 107.045 14.9504 107.764 14.2363C108.484 13.5248 109.332 12.9558 110.265 12.5596C112.202 11.7517 114.381 11.7403 116.326 12.5277C117.243 12.9087 118.078 13.4577 118.79 14.1463L118.684 14.2434C118.558 14.3699 118.411 14.4728 118.25 14.5469C118.084 14.6161 117.906 14.6503 117.728 14.6475C117.481 14.6492 117.241 14.5745 117.039 14.4339C116.508 14.0704 115.927 13.7845 115.313 13.5851C114.671 13.3794 114 13.2769 113.326 13.2815C112.74 13.2792 112.156 13.3562 111.592 13.5109C111.046 13.6589 110.522 13.8797 110.036 14.1675C109.555 14.4504 109.11 14.7912 108.714 15.1823C108.316 15.5743 107.974 16.0164 107.694 16.4972C107.409 16.9859 107.187 17.5083 107.034 18.0522C106.875 18.6133 106.796 19.1937 106.797 19.7766C106.796 20.3605 106.877 20.9417 107.04 21.5027C107.356 22.5916 107.951 23.58 108.767 24.3709C109.173 24.7638 109.625 25.1053 110.114 25.3875C110.612 25.6741 111.146 25.8948 111.7 26.0441C112.267 26.1983 112.854 26.2755 113.444 26.2735C114.172 26.2759 114.9 26.1774 115.601 25.9805C116.299 25.7822 116.964 25.4849 117.576 25.0981V21.4162H116.213C116.037 21.4194 115.864 21.3862 115.702 21.3191C115.54 21.252 115.394 21.1522 115.273 21.0262C115.162 20.9067 115.075 20.767 115.016 20.615C114.956 20.4577 114.926 20.2908 114.926 20.1226V20.0802L118.889 20.0819Z" fill="white"/>
<path d="M124.719 27.4498H123.367V12.1007H128.792C129.376 12.0961 129.953 12.2106 130.491 12.4369C131.004 12.6548 131.472 12.9676 131.867 13.3588C132.263 13.7506 132.579 14.2144 132.797 14.7247C133.026 15.2523 133.141 15.8209 133.139 16.3949C133.139 16.9176 133.047 17.4362 132.867 17.9272C132.694 18.4075 132.442 18.8565 132.122 19.256C131.804 19.6477 131.416 19.9765 130.976 20.2255C130.528 20.4794 130.031 20.6379 129.517 20.6909L134.64 27.4498H134.003C133.261 27.4498 132.711 27.1774 132.36 26.6377L127.852 20.6909H124.719V27.4498ZM124.719 13.4384V19.3516H128.792C129.191 19.354 129.588 19.2759 129.955 19.1215C130.311 18.9729 130.633 18.7578 130.906 18.4881C131.179 18.2174 131.397 17.8979 131.549 17.5469C131.708 17.1835 131.79 16.7911 131.786 16.3949C131.79 16.0011 131.708 15.611 131.549 15.2502C131.24 14.5422 130.67 13.9781 129.955 13.6737C129.588 13.5161 129.193 13.4359 128.792 13.4384H124.719Z" fill="white"/>
<path d="M139.426 27.4497H138.191V12.1006H139.426V27.4497Z" fill="white"/>
<path d="M144.677 27.4496V12.1006H150.301C151.657 12.0953 152.988 12.4578 154.155 13.1499C155.289 13.8215 156.235 14.7705 156.905 15.9082C157.593 17.0819 157.956 18.4187 157.956 19.7804C157.956 21.1421 157.593 22.4791 156.905 23.6527C156.571 24.2187 156.168 24.7407 155.704 25.2061C154.77 26.1451 153.607 26.8237 152.333 27.1754C151.672 27.3603 150.987 27.4525 150.301 27.4496H144.677ZM150.301 26.1102C151.149 26.117 151.988 25.9478 152.769 25.613C153.516 25.2922 154.196 24.8324 154.774 24.2578C155.351 23.6809 155.811 22.997 156.13 22.2442C156.457 21.4643 156.625 20.6266 156.625 19.7804C156.625 18.9342 156.457 18.0966 156.13 17.3167C155.811 16.5627 155.351 15.8772 154.774 15.2978C154.198 14.721 153.516 14.2592 152.769 13.9371C151.988 13.6019 151.149 13.432 150.301 13.4382H146.01V26.1102H150.301Z" fill="white"/>
<path d="M167.636 14.1273C167.472 14.0142 167.326 13.9065 167.203 13.8075C166.944 13.6 166.643 13.4538 166.319 13.38C166.086 13.3326 165.848 13.3112 165.611 13.3165C165.21 13.3142 164.809 13.3848 164.434 13.5249C164.077 13.6559 163.745 13.8458 163.452 14.0867C163.178 14.314 162.95 14.5939 162.785 14.9099C162.623 15.2161 162.537 15.5578 162.538 15.9044C162.528 16.2393 162.58 16.5732 162.694 16.8884C162.808 17.1573 162.991 17.3912 163.225 17.5668C163.523 17.793 163.851 17.9769 164.2 18.1127C164.602 18.2799 165.101 18.4671 165.694 18.6744C166.009 18.7921 166.304 18.8993 166.578 18.9959C166.849 19.0948 167.11 19.1973 167.349 19.2996C167.582 19.3977 167.809 19.5081 168.029 19.63C168.24 19.749 168.442 19.8831 168.634 20.0311C169.116 20.3904 169.485 20.8811 169.695 21.4443C169.903 22.0318 170.006 22.6513 170 23.2744C170.009 23.8994 169.873 24.518 169.603 25.0816C169.347 25.6067 168.983 26.0715 168.534 26.4454C168.066 26.8295 167.53 27.1214 166.953 27.3057C166.327 27.5096 165.672 27.6104 165.013 27.6043C163.679 27.6043 162.554 27.2086 161.64 26.417C161.411 26.2082 161.197 25.9814 161.003 25.7388C160.848 25.5432 160.706 25.3372 160.581 25.1223L160.74 25.0268C160.944 24.9015 161.176 24.8314 161.415 24.8237C161.581 24.8229 161.747 24.8462 161.908 24.8926C162.066 24.9402 162.21 25.0271 162.326 25.1452C162.571 25.3787 162.839 25.5881 163.124 25.7706C163.335 25.9029 163.562 26.0108 163.797 26.0921C163.996 26.1567 164.201 26.1975 164.408 26.214C164.604 26.2281 164.805 26.2387 165.013 26.2458C165.448 26.2596 165.882 26.2108 166.303 26.1009C166.722 25.9986 167.117 25.8188 167.47 25.571C167.818 25.3249 168.107 25.0052 168.317 24.6347C168.545 24.2194 168.658 23.7512 168.645 23.278C168.665 22.7937 168.578 22.3111 168.388 21.8648C168.227 21.5244 167.983 21.229 167.68 21.0044C167.35 20.7693 166.987 20.5837 166.603 20.4533C166.189 20.3061 165.743 20.14 165.265 19.9551C164.658 19.7131 164.105 19.487 163.605 19.2821C163.146 19.0985 162.717 18.8517 162.326 18.5489C161.974 18.27 161.691 17.9132 161.5 17.5067C161.286 16.9999 161.186 16.4523 161.206 15.9027C161.2 15.3363 161.335 14.7771 161.603 14.2775C161.86 13.7999 162.207 13.3765 162.626 13.0302C163.047 12.6833 163.526 12.4119 164.041 12.2283C164.546 12.0439 165.081 11.9482 165.619 11.9456C166.035 11.9404 166.45 11.9999 166.847 12.1223C167.199 12.2322 167.536 12.3829 167.852 12.5709C168.148 12.7466 168.425 12.9526 168.678 13.1857C168.923 13.4143 169.15 13.6392 169.358 13.8605L169.025 14.0955C168.935 14.1611 168.837 14.2134 168.731 14.2509C168.601 14.2928 168.465 14.3125 168.328 14.3093C168.084 14.3178 167.844 14.2545 167.636 14.1273Z" fill="white"/>
<path d="M55.6784 19.2422V25.676C55.307 26.05 54.8844 26.3705 54.4243 26.6282C53.9752 26.8789 53.4997 27.079 53.0068 27.2247C52.5041 27.3721 51.9887 27.4722 51.4673 27.5239C50.9311 27.5785 50.3924 27.6057 49.8534 27.6052C48.8042 27.6136 47.7646 27.4063 46.799 26.9964C45.8675 26.5997 45.0189 26.0318 44.2975 25.322C43.5801 24.609 43.007 23.7648 42.609 22.8353C42.1948 21.8703 41.9848 20.8301 41.9925 19.7802C41.9846 18.3907 42.3518 17.0246 43.0554 15.8262C43.4001 15.2452 43.8168 14.7099 44.2957 14.2332C45.2595 13.2744 46.456 12.5822 47.7681 12.2243C48.4479 12.0371 49.1501 11.9437 49.855 11.9463C50.4218 11.9455 50.9864 12.0102 51.5381 12.1393C52.0882 12.2671 52.6229 12.4541 53.1327 12.6967C53.6457 12.9454 54.1336 13.2417 54.5906 13.5818C55.0581 13.9274 55.4924 14.3149 55.8897 14.7394L55.2441 15.3925C55.0618 15.5924 54.8382 15.7505 54.5887 15.856C54.3387 15.9614 54.0695 16.0115 53.7985 16.0032C53.4073 16.0064 53.0241 15.8869 52.704 15.6616C52.2957 15.3812 51.8495 15.1607 51.3787 15.0066C50.889 14.848 50.377 14.7686 49.8622 14.7712C49.1923 14.7688 48.529 14.9037 47.9134 15.1677C46.7016 15.6734 45.7315 16.6262 45.2046 17.828C44.9359 18.4417 44.7989 19.1049 44.8024 19.7749C44.7971 20.4564 44.9397 21.1309 45.2204 21.7519C45.6342 22.6614 46.3012 23.4327 47.142 23.9734C47.9827 24.5142 48.9614 24.8018 49.9613 24.8016C50.3024 24.7936 50.6427 24.7646 50.9801 24.7149C51.2986 24.6671 51.6141 24.5996 51.9244 24.5131C52.2488 24.4237 52.5593 24.2902 52.8474 24.1167V21.9591L51.9616 21.9432C51.6956 21.9442 51.4326 21.8874 51.1909 21.7767C50.9549 21.6616 50.7642 21.471 50.6488 21.2352C50.4921 20.8803 50.4222 20.4932 50.4451 20.1059V19.2474L55.6784 19.2422Z" fill="white"/>
<path d="M35.7069 22.2838C36.963 12.4241 30.021 3.40876 20.2014 2.14745C10.3817 0.88613 1.40298 7.85651 0.146849 17.7163C-1.10934 27.5759 5.83266 36.5913 15.6523 37.8526C25.472 39.1138 34.4507 32.1435 35.7069 22.2838Z" fill="white"/>
<path d="M18.5911 19.7167V21.4421H22.3538V24.3278H18.6175V24.3175C18.5176 24.3175 18.4137 24.3278 18.3138 24.3278C17.7588 24.3294 17.2091 24.2186 16.6974 24.0024C15.954 23.6866 15.317 23.1622 14.863 22.492C14.3055 21.6624 14.0638 20.6591 14.1824 19.6653C14.3009 18.6718 14.7717 17.754 15.5085 17.0801C16.2455 16.4063 17.1994 16.0213 18.1957 15.9954C19.1922 15.9696 20.1646 16.3047 20.9352 16.9395H28.273C28.1792 16.6448 28.0693 16.3541 27.9531 16.0717C27.217 14.321 26.0221 12.8036 24.4954 11.6807C22.9688 10.5578 21.1674 9.8715 19.2832 9.69492C17.3988 9.51829 15.5021 9.85789 13.7949 10.6777C12.0875 11.4974 10.6334 12.7666 9.5875 14.3503C8.54154 15.9338 7.9427 17.7726 7.8548 19.6706C7.76691 21.5689 8.19321 23.4554 9.08833 25.1295C9.98338 26.8037 11.3137 28.2029 12.938 29.1782C14.5622 30.1536 16.4193 30.6685 18.3118 30.6683H28.7072V19.7126L18.5911 19.7167ZM22.3538 28.9266H18.8886C18.7582 28.9266 18.6236 28.9409 18.481 28.943H18.1794C16.677 28.9218 15.2054 28.5125 13.9064 27.7543C12.6074 26.9962 11.5249 25.9149 10.763 24.6146C10.0012 23.3143 9.5859 21.8388 9.55701 20.3304C9.52812 18.8221 9.88674 17.3318 10.5982 16.0031C11.3097 14.6743 12.3501 13.552 13.6192 12.7442C14.8881 11.9366 16.3429 11.4708 17.8433 11.3917C19.3438 11.3127 20.8392 11.623 22.1855 12.2929C23.5317 12.9627 24.6833 13.9696 25.5294 15.2162H21.4977C20.7309 14.7195 19.8593 14.409 18.9521 14.3096C18.045 14.2101 17.1273 14.3244 16.2717 14.6433C15.4163 14.9623 14.6466 15.4771 14.024 16.1468C13.4011 16.8166 12.9426 17.6229 12.6844 18.5017C12.4263 19.3806 12.3758 20.3078 12.5369 21.2097C12.698 22.1115 13.0663 22.9632 13.6126 23.6973C14.1589 24.4312 14.8679 25.0272 15.6837 25.438C16.4994 25.8487 17.3992 26.0629 18.3118 26.0634H22.3538V28.9266ZM27.0053 28.943H24.0741L24.0904 28.9327H24.0741V26.0673H27.0053V28.943ZM27.0053 24.3318H24.0741V21.4461H27.0053V24.3318Z" fill="white"/>
<path d="M18.0835 19.1718V20.8971H21.8482V23.7828H18.108V23.7727C18.0081 23.7727 17.9041 23.7828 17.8063 23.7828C17.1258 23.7841 16.4555 23.6166 15.855 23.2953C15.2544 22.974 14.7422 22.5087 14.3636 21.9409C13.9791 21.3655 13.7427 20.7032 13.6758 20.0134C13.609 19.3236 13.7136 18.628 13.9804 17.9889C14.2944 17.2415 14.8176 16.6016 15.4868 16.1469C16.0589 15.7596 16.7183 15.5215 17.4052 15.4543C18.092 15.3872 18.7847 15.493 19.4207 15.7621C19.7878 15.9171 20.131 16.1238 20.4398 16.3762H27.7778C27.6819 16.0813 27.5739 15.7908 27.4577 15.5084C26.7191 13.7608 25.5229 12.2467 23.996 11.1271C22.4692 10.0073 20.6688 9.32392 18.7862 9.14913C16.9035 8.97435 15.0088 9.31495 13.3035 10.1346C11.5981 10.9543 10.1457 12.2225 9.10054 13.8045C8.05532 15.3865 7.45648 17.2232 7.36753 19.1195C7.27865 21.0158 7.70286 22.9009 8.59527 24.5745C9.48773 26.2481 10.815 27.6477 12.436 28.6247C14.0572 29.6017 15.9115 30.1196 17.8023 30.1233H28.1976V19.1616L18.0835 19.1718ZM21.8482 28.3816H18.3831C18.2507 28.3816 18.1182 28.3959 17.9756 28.398H17.6799C16.1771 28.379 14.7044 27.9715 13.404 27.2147C12.1037 26.4578 11.0194 25.3774 10.256 24.0774C9.4926 22.7774 9.07566 21.3019 9.04547 19.793C9.01529 18.2841 9.37286 16.793 10.0836 15.4633C10.7944 14.1336 11.8345 13.0103 13.1035 12.2017C14.3727 11.3931 15.8278 10.9264 17.3288 10.8468C18.8297 10.7672 20.3257 11.0773 21.6725 11.7473C23.0193 12.4171 24.1715 13.4242 25.0179 14.6713H20.9901C20.2238 14.1707 19.3518 13.8567 18.4432 13.7543C17.5347 13.652 16.615 13.7641 15.7573 14.0817C14.8996 14.3994 14.1275 14.9138 13.5028 15.584C12.878 16.2541 12.4179 17.0615 12.1589 17.9419C11.8999 18.8222 11.8491 19.7512 12.0109 20.6546C12.1726 21.558 12.5423 22.411 13.0904 23.1457C13.6384 23.8804 14.3499 24.4763 15.1679 24.8862C15.9861 25.296 16.8881 25.5082 17.8023 25.5061H21.8442L21.8482 28.3816ZM26.4998 28.398H23.5687L23.5828 28.3878H23.5687V25.5061H26.4998V28.398ZM26.4998 23.7869H23.5687V20.9012H26.4998V23.7869Z" fill="#212B36"/>
<path d="M21.8483 25.5088H23.5687V26.3294H21.8483V25.5088Z" fill="white"/>
<path d="M20.4562 20.8977H21.8483V21.7183H23.5667V20.8977H24.8283V20.8955H20.4562V20.8977Z" fill="white"/>
</g>
<path d="M254 20.5C254 24.625 250.624 28 246.461 28C241.004 28 238.229 24.2499 235.5 20.5C232.771 16.75 229.996 13 224.539 13C220.376 13 217 16.375 217 20.5" stroke="white" stroke-width="4" stroke-miterlimit="10"/>
<path d="M254 20.5C254 16.375 250.624 13 246.461 13C241.004 13 238.229 16.75 235.5 20.5C232.771 24.25 229.996 28 224.539 28C220.376 28 217 24.625 217 20.5" stroke="white" stroke-width="4" stroke-miterlimit="10"/>
<path d="M268.534 29.9576V10.5967H271.072V27.4322H279.002V29.9576H268.534ZM281.549 14.6372V11.9435H284.087V14.6372H281.549ZM281.549 29.9576V15.9841H284.087V29.9576H281.549ZM315.834 14.6372V11.9435H318.372V14.6372H315.834ZM315.834 29.9576V15.9841H318.372V29.9576H315.834ZM298.33 21.0768C298.251 20.5297 298.132 19.9404 297.933 19.3512C297.735 18.7619 297.418 18.2148 297.061 17.7097C296.665 17.2046 296.189 16.7837 295.554 16.4892C294.92 16.1945 294.166 16.0261 293.255 16.0261C292.065 16.0261 291.074 16.2787 290.242 16.8259C289.845 17.0784 289.528 17.373 289.21 17.7097V16.0261H286.673V29.9997H289.21V23.055H289.25C289.25 22.2133 289.33 21.5398 289.528 20.9505C289.686 20.3613 289.924 19.8983 290.242 19.5616C290.559 19.2249 290.915 18.9724 291.312 18.804C291.709 18.6357 292.144 18.5515 292.62 18.5515C293.334 18.5515 293.889 18.7198 294.325 19.0145C294.762 19.3091 295.078 19.7299 295.356 20.193C295.594 20.698 295.753 21.2031 295.832 21.7923C295.911 22.3816 295.951 22.9287 295.951 23.4759V29.9997H298.528V22.55C298.449 22.1291 298.409 21.624 298.33 21.0768ZM362.41 21.0768C362.331 20.5297 362.212 19.9404 362.014 19.3512C361.816 18.7619 361.498 18.2148 361.141 17.7097C360.745 17.2046 360.27 16.7837 359.635 16.4892C359.001 16.1945 358.248 16.0261 357.336 16.0261C356.146 16.0261 355.155 16.2787 354.322 16.8259C353.926 17.0784 353.608 17.373 353.291 17.7097V16.0261H350.753V29.9997H353.291V23.055H353.331C353.331 22.2133 353.41 21.5398 353.608 20.9505C353.767 20.3613 354.005 19.8983 354.322 19.5616C354.639 19.2249 354.996 18.9724 355.393 18.804C355.789 18.6357 356.225 18.5515 356.701 18.5515C357.415 18.5515 357.97 18.7198 358.406 19.0145C358.842 19.3091 359.16 19.7299 359.397 20.193C359.635 20.698 359.794 21.2031 359.873 21.7923C359.952 22.3816 359.992 22.9287 359.992 23.4759V29.9997H362.569V22.55C362.529 22.1291 362.49 21.624 362.41 21.0768ZM312.256 23.6864H313.525C313.604 22.0869 313.445 20.7401 312.97 19.5616C312.494 18.4252 311.78 17.4993 310.868 16.91C309.917 16.2787 308.767 15.9841 307.459 15.9841C306.19 15.9841 305.04 16.2787 304.088 16.8679C303.137 17.4572 302.384 18.2568 301.829 19.3512C301.274 20.4034 301.035 21.6661 301.035 23.0971C301.035 24.4439 301.313 25.6645 301.868 26.7168C302.423 27.769 303.176 28.5686 304.168 29.1158C305.159 29.705 306.309 29.9997 307.617 29.9997C308.886 29.9997 310.036 29.663 311.107 29.0316C312.137 28.4003 312.931 27.4744 313.445 26.2958L310.948 25.4962C310.631 26.1696 310.155 26.7168 309.599 27.0535C309.005 27.4322 308.331 27.6006 307.538 27.6006C306.309 27.6006 305.397 27.2218 304.763 26.4221C304.247 25.7487 303.93 24.8648 303.851 23.7705H311.107H312.256V23.6864ZM304.643 19.4774C305.278 18.6777 306.23 18.2568 307.498 18.2568C308.648 18.2568 309.52 18.6357 310.076 19.3512C310.472 19.8563 310.75 20.6138 310.868 21.5398H303.771C303.93 20.698 304.247 20.0246 304.643 19.4774ZM327.025 29.9576C325.676 29.9576 324.527 29.663 323.575 29.0316C322.623 28.4424 321.909 27.6006 321.394 26.5484C320.879 25.4962 320.641 24.2756 320.641 22.9708C320.641 21.624 320.918 20.4034 321.434 19.3512C321.949 18.299 322.663 17.4572 323.615 16.8679C324.566 16.2787 325.716 15.9841 327.025 15.9841C328.452 15.9841 329.681 16.3628 330.712 17.0784C331.742 17.7939 332.417 18.804 332.734 20.0246L330.196 20.7401C329.959 19.9825 329.522 19.4354 328.967 19.0145C328.412 18.5936 327.739 18.3831 326.985 18.3831C326.152 18.3831 325.478 18.5936 324.923 18.9724C324.368 19.3512 323.972 19.8983 323.734 20.6138C323.456 21.2872 323.337 22.0869 323.337 22.9708C323.337 24.3176 323.654 25.454 324.289 26.2958C324.883 27.1377 325.795 27.5585 327.025 27.5585C327.857 27.5585 328.492 27.348 329.007 26.9693C329.522 26.5905 329.919 26.0433 330.157 25.3278L332.734 25.9591C332.298 27.2639 331.584 28.2319 330.593 28.9475C329.641 29.6209 328.412 29.9576 327.025 29.9576ZM341.744 29.9576C340.435 29.9576 339.285 29.663 338.334 29.0737C337.382 28.4844 336.629 27.6427 336.114 26.5905C335.598 25.5382 335.32 24.3176 335.32 22.9708C335.32 21.5819 335.598 20.3613 336.114 19.3091C336.669 18.2568 337.382 17.4572 338.373 16.8679C339.325 16.2787 340.475 15.9841 341.744 15.9841C343.052 15.9841 344.202 16.2787 345.153 16.8679C346.106 17.4572 346.859 18.299 347.414 19.3512C347.929 20.4034 348.207 21.624 348.207 22.9708C348.207 24.3598 347.929 25.5804 347.414 26.6326C346.898 27.6848 346.145 28.4845 345.153 29.1158C344.162 29.663 343.052 29.9576 341.744 29.9576ZM341.744 27.5585C343.013 27.5585 343.925 27.1377 344.559 26.2958C345.194 25.454 345.51 24.3598 345.51 22.9708C345.51 21.5819 345.194 20.4876 344.559 19.6458C343.925 18.804 343.013 18.3831 341.744 18.3831C340.872 18.3831 340.197 18.5936 339.642 18.9724C339.087 19.3512 338.691 19.8983 338.413 20.5718C338.136 21.2452 338.017 22.0449 338.017 22.9287C338.017 24.3176 338.334 25.412 338.968 26.2538C339.563 27.1377 340.515 27.5585 341.744 27.5585ZM370.786 29.9576C369.2 29.9576 367.892 29.6209 366.86 28.9053C365.87 28.1899 365.235 27.1797 364.997 25.9171L367.614 25.4962C367.772 26.1696 368.169 26.7168 368.724 27.1377C369.319 27.5164 370.033 27.7269 370.905 27.7269C371.698 27.7269 372.332 27.5585 372.769 27.2218C373.205 26.8851 373.442 26.4642 373.442 25.8749C373.442 25.5382 373.363 25.2857 373.205 25.0753C373.046 24.8648 372.729 24.6544 372.214 24.486C371.698 24.3176 370.945 24.0651 369.914 23.7705C368.804 23.4759 367.892 23.1392 367.217 22.8025C366.543 22.4658 366.068 22.0449 365.79 21.624C365.513 21.161 365.354 20.6138 365.354 19.9825C365.354 19.1829 365.552 18.4673 365.988 17.8781C366.425 17.2888 367.019 16.8259 367.772 16.4892C368.526 16.1524 369.438 15.9841 370.469 15.9841C371.46 15.9841 372.372 16.1524 373.165 16.447C373.958 16.7837 374.593 17.2046 375.068 17.7939C375.544 18.3831 375.861 19.0565 375.94 19.8563L373.324 20.3192C373.244 19.6879 372.927 19.1828 372.451 18.804C371.936 18.4252 371.302 18.2148 370.508 18.2148C369.755 18.1727 369.121 18.299 368.645 18.5936C368.169 18.8882 367.931 19.267 367.931 19.7721C367.931 20.0667 368.01 20.3192 368.209 20.5297C368.407 20.7401 368.764 20.9505 369.279 21.1189C369.794 21.2872 370.588 21.5398 371.618 21.7923C372.729 22.0869 373.601 22.3816 374.236 22.7603C374.87 23.0971 375.346 23.518 375.623 23.9809C375.901 24.4439 376.06 25.0332 376.06 25.7066C376.06 27.0113 375.584 28.0636 374.632 28.7791C373.76 29.5788 372.451 29.9576 370.786 29.9576Z" fill="white"/>
<path opacity="0.56" d="M435.484 3.41667C435.484 1.52896 437.024 0 438.925 0H440.645C452.047 0 461.29 9.17802 461.29 20.5V37.5833C461.29 39.471 459.75 41 457.849 41H456.129C444.727 41 435.484 31.822 435.484 20.5V3.41667Z" fill="white"/>
<path opacity="0.88" d="M437.204 40.9997C446.706 40.9997 454.409 33.3512 454.409 23.9163C454.409 14.4815 446.706 6.83301 437.204 6.83301C427.703 6.83301 420 14.4815 420 23.9163C420 33.3512 427.703 40.9997 437.204 40.9997Z" fill="white"/>
<path d="M484.818 32.5732H490.559L482.5 10.25H476.224L468.172 32.5732H473.846L475.181 28.63H483.484L484.818 32.5732ZM482.09 24.4325H476.608L479.329 16.2601L482.09 24.4325ZM501.154 25.9271L497.065 14.8291H491.008L498.208 31.969L494.146 41H499.985L511.083 14.8291H505.217L501.154 25.9271ZM518.461 24.3371C518.461 21.2844 519.954 20.394 522.524 20.394H524.01V14.6383C521.632 14.6383 519.696 15.9103 518.461 17.7864V14.8291H513.038V32.5732H518.461V24.3371ZM543.913 23.7011C543.913 18.0726 539.923 14.5747 534.718 14.5747C529.552 14.5747 525.523 18.0726 525.523 23.7011C525.523 29.3296 529.46 32.8275 534.658 32.8275C539.857 32.8275 543.913 29.3296 543.913 23.7011ZM531.045 23.7011C531.045 20.6802 532.756 19.281 534.718 19.281C536.62 19.281 538.397 20.6802 538.397 23.7011C538.397 26.6903 536.594 28.1213 534.658 28.1213C532.69 28.1213 531.045 26.6903 531.045 23.7011ZM555.658 24.4007C555.658 30.1564 559.397 32.7958 563.968 32.7958C568.532 32.7958 572.305 30.1564 572.305 24.4007V10.409H569.418V24.4325C569.418 28.5029 567.264 30.2518 563.994 30.2518C560.731 30.2518 558.545 28.5029 558.545 24.4325V10.409H555.658V24.4007ZM577.12 32.5732H580V10.409H577.12V32.5732Z" fill="white"/>
<defs>
<clipPath id="clip0_121_53806">
<rect width="170" height="36" fill="white" transform="translate(0 2)"/>
</clipPath>
</defs>
</svg>
